<svg xmlns="http://www.w3.org/2000/svg" viewBox="0 0 509.287 509.287" xml:space="preserve" width="40" height="40"><circle style="fill:#4b5aa7" cx="254.644" cy="254.644" r="254.644"/><path style="fill:#dededf" d="M453.001 107.147H56.286c-4.069 0-7.46 3.391-7.46 7.46v280.074c0 4.069 3.391 7.46 7.46 7.46h396.715c4.069 0 7.46-3.391 7.46-7.46V114.607c0-4.069-3.391-7.46-7.46-7.46z"/><path style="fill:#f1f3f7" d="M69.51 160.721h370.268v221.415H69.51z"/><circle style="fill:#f0582f" cx="79.343" cy="137.325" r="9.833"/><circle style="fill:#71d456" cx="110.199" cy="137.325" r="9.833"/><circle style="fill:#4485c5" cx="141.054" cy="137.325" r="9.833"/><path style="fill:#f1f3f7" d="M429.944 127.491H176.996c-5.425 0-9.833 4.408-9.833 9.833s4.408 9.833 9.833 9.833h252.948c5.425 0 9.833-4.408 9.833-9.833s-4.407-9.833-9.833-9.833z"/><path style="fill:#646b79" d="m125.118 340.429-8.138-7.12 90.872-98.332 99.348 63.407 76.97-95.958 8.476 6.782-83.073 103.417-100.026-63.746z"/><circle style="fill:#6eb1e1" cx="121.049" cy="337.038" r="22.379"/><circle style="fill:#fbd303" cx="208.53" cy="242.098" r="22.379"/><circle style="fill:#71d456" cx="308.217" cy="305.505" r="22.379"/><circle style="fill:#f0582f" cx="388.238" cy="205.817" r="22.379"/></svg>