<svg height="120px" width="120px" xmlns="http://www.w3.org/2000/svg" viewBox="0 0 287.403 287.403" xml:space="preserve"><path d="M197.095 253.646H30V33.757h167.095v12.214l29.767-29.767c-1.214-7.066-7.355-12.447-14.767-12.447H15c-8.284 0-15 6.716-15 15v249.89c0 8.284 6.716 15 15 15h197.095c8.284 0 15-6.716 15-15V159.041l-30 7.533v87.072z"/><path d="M140.161 73.802c-5.169-6.474-14.605-7.533-21.081-2.366L84.964 98.667 74.647 88.352c-5.857-5.857-15.355-5.857-21.213 0-5.858 5.857-5.858 15.355 0 21.213l19.799 19.799a14.973 14.973 0 0 0 10.61 4.394c3.296 0 6.604-1.081 9.354-3.276l44.598-35.598c6.475-5.169 7.534-14.608 2.366-21.082zM119.08 168.366l-34.116 27.232-10.316-10.316c-5.857-5.859-15.355-5.857-21.213 0s-5.858 15.354 0 21.213l19.799 19.8a14.97 14.97 0 0 0 10.61 4.394c3.296 0 6.604-1.082 9.354-3.276l44.598-35.599c6.475-5.169 7.534-14.606 2.366-21.081-5.17-6.474-14.606-7.534-21.082-2.367zM276.798 12.959c-2.587 0-5.224.96-7.37 3.105l-71.389 71.39a27.368 27.368 0 0 0-7.194 12.69l-7.66 30.506c-.358 1.424-.235 2.96.497 4.232a5.477 5.477 0 0 0 6.088 2.6l30.704-7.71a27.368 27.368 0 0 0 12.69-7.194l43.493-43.493a36.693 36.693 0 0 0 10.747-25.946V23.51c-.001-6.347-5.194-10.551-10.606-10.551z"/></svg>