<svg height="100" width="100" xmlns="http://www.w3.org/2000/svg" viewBox="0 0 504 504" xml:space="preserve"><circle style="fill:#ffd05b" cx="252" cy="252" r="252"/><path style="fill:#2b3b4e" d="M375.6 407.8s-.7-3.4-1.7-9.2c-.9-5.9-2.4-14.3-3.7-24.4-1.3-10.1-2.7-21.8-3.9-34.4-.7-6.3-1.1-12.8-1.7-19.4s-1-13.3-1.5-20.1c-1.9-26.9-3.2-53.7-3.6-73.9-.2-10.1-.2-18.5-.3-24.4.1-5.9.1-9.2.1-9.2v-.1c0-3.2-2.6-5.7-5.8-5.7-3.2 0-5.7 2.6-5.7 5.8 0 0 0 3.4.1 9.2-.1 5.9-.1 14.3-.3 24.4-.4 20.2-1.7 47-3.6 73.9-.5 6.7-.9 13.4-1.5 20.1-.6 6.6-1 13.1-1.7 19.4-1.2 12.6-2.6 24.4-3.9 34.4-1.3 10.1-2.8 18.5-3.7 24.4-.9 5.9-1.7 9.2-1.7 9.2-.6 3-.7 6.3 0 9.5 2.6 12.2 14.6 19.9 26.8 17.3 12.2-2.6 20-14.6 17.3-26.8z"/><path style="fill:#fff" d="M395.4 157.6c0 34-18.7 46.4-41.8 46.4-23.1 0-41.8-12.4-41.8-46.4s18.7-76.8 41.8-76.8c23.1 0 41.8 42.7 41.8 76.8z"/><path style="fill:#2b3b4e" d="M262.3 408s-.7-3.3-1.6-9.2c-.9-5.8-2.4-14.2-3.7-24.2-1.3-10-2.7-21.7-3.9-34.2-.7-6.3-1.1-12.7-1.7-19.3-.6-6.6-1-13.2-1.5-19.9-1.9-26.7-3.2-53.4-3.6-73.4-.2-10-.2-18.3-.3-24.2.1-5.8.1-9.2.1-9.2v-.1c0-3.1-2.6-5.7-5.8-5.6-3.1 0-5.7 2.6-5.6 5.8 0 0 0 3.3.1 9.2-.1 5.8-.1 14.2-.3 24.2-.4 20-1.7 46.7-3.6 73.4-.5 6.7-.9 13.3-1.5 19.9s-1 13-1.7 19.3c-1.2 12.5-2.6 24.2-3.9 34.2-1.3 10-2.8 18.3-3.7 24.2-.9 5.8-1.6 9.2-1.6 9.2-.6 3-.7 6.3 0 9.5 2.6 12.1 14.6 19.8 26.7 17.2 12-2.7 19.7-14.7 17.1-26.8z"/><path style="fill:#fff" d="M270.4 80.8c-1.7 0-3.2 1.4-3.2 3.1l-3.6 69c-.1 2.2-1.9 3.8-4 3.8-2.2 0-3.9-1.7-4-3.8L252 82.7c0-1-.9-1.9-1.9-1.9s-1.9.8-1.9 1.9l-3.6 70c-.1 2-1.6 3.8-3.6 4-2.4.3-4.4-1.5-4.5-3.8l-3.6-70.2c0-1-.9-1.9-1.9-1.9h-.1c-1 0-1.9.8-1.9 1.9l-3.6 70.2c-.1 2.2-1.9 3.8-4 3.8-2.2 0-3.9-1.7-4-3.8l-3.5-69c-.1-1.9-1.8-3.4-3.8-3-1.6.3-2.6 1.8-2.6 3.3v94.4c0 2.1.2 4.2.6 6.3 2.8 15.5 16.8 26.5 32.6 26.5s29.9-11 32.6-26.5c.4-2.1.6-4.2.6-6.3V84.1c-.3-1.9-1.8-3.3-3.5-3.3z"/><path style="fill:#324a5e" d="M166 406.1s-.8-3.6-1.8-9.8c-1-6.3-2.6-15.2-3.9-25.9-1.4-10.7-2.9-23.2-4.2-36.6-.7-6.7-1.2-13.6-1.8-20.7-.6-7-1.1-14.2-1.6-21.3-2.1-28.6-3.4-57.2-3.8-78.6-.2-10.7-.2-19.7-.3-25.9.1-6.3.1-9.8.1-9.8v-.1c0-3.4-2.8-6.1-6.2-6.1s-6.1 2.8-6.1 6.2c0 0 0 3.6.1 9.8-.1 6.3-.1 15.2-.3 25.9-.5 21.4-1.8 50-3.8 78.6-.5 7.1-.9 14.3-1.6 21.3-.6 7-1.1 14-1.8 20.7-1.3 13.4-2.8 25.9-4.2 36.6-1.4 10.7-2.9 19.7-3.9 25.9-1 6.3-1.8 9.8-1.8 9.8-.7 3.2-.7 6.7 0 10.1 2.8 13 15.6 21.2 28.6 18.4 12.9-2.8 21.1-15.6 18.3-28.5z"/><path style="fill:#fff" d="M130.7 268H154V95.2c0-7.9-5.5-14.4-12.4-14.4-4.9 0-9.4 3.3-11.4 8.6-8.8 23.4-30.6 91.7-17.5 165.1 0 0 16.8.1 18 13.5z"/><path style="fill:#e6e9ee" d="M156.7 267.8h-28.5c-.5 0-.9.4-.9.9v10.7c0 .5.4.9.9.9h28.5c.5 0 .9-.4.9-.9v-10.7c.1-.4-.4-.9-.9-.9z"/></svg>