<svg width="40" height="40" viewBox="0 0 73 73" xmlns="http://www.w3.org/2000/svg"><g fill="none" fill-rule="nonzero"><rect x="-1" y="-1" width="71" height="71" rx="14" transform="translate(2 2)" fill="#FFF" stroke="#123767" stroke-width="2"/><path d="M35.1 25.634a3.491 3.491 0 0 1-2.94-1.609 1.433 1.433 0 0 0-1.057-.643v7.735h-7.775c.058-.412.285-.785.638-1.012a3.488 3.488 0 0 0 1.607-2.94 3.5 3.5 0 0 0-3.725-3.492 3.517 3.517 0 0 0-3.268 3.292 3.49 3.49 0 0 0 1.612 3.145c.35.225.573.6.628 1.007H13v-13.35a4.754 4.754 0 0 1 4.753-4.753h13.35v7.872c.425-.044.818-.27 1.052-.635A3.493 3.493 0 0 1 35.3 18.64a3.517 3.517 0 0 1 3.292 3.269 3.501 3.501 0 0 1-3.493 3.725Z" fill="#9FD479"/><path d="M49.206 31.117h-7.83c.033.444.262.857.638 1.097a3.492 3.492 0 0 1 1.611 3.146 3.517 3.517 0 0 1-3.268 3.293 3.5 3.5 0 0 1-3.725-3.493c0-1.235.64-2.318 1.608-2.94.38-.245.614-.658.648-1.103h-7.785v-7.735c.429.045.821.277 1.057.643a3.491 3.491 0 0 0 2.94 1.609 3.501 3.501 0 0 0 3.494-3.725 3.517 3.517 0 0 0-3.293-3.27 3.493 3.493 0 0 0-3.146 1.612 1.416 1.416 0 0 1-1.052.635v-7.872h13.35a4.754 4.754 0 0 1 4.752 4.753v13.35Z" fill="#F2DF33"/><g fill="#D9B92C"><path d="M44.452 13.014H42.28a4.754 4.754 0 0 1 4.753 4.753v13.35h2.174v-13.35a4.754 4.754 0 0 0-4.754-4.753ZM42.014 32.214a1.42 1.42 0 0 1-.638-1.097h-2.173c.033.444.262.857.638 1.097a3.492 3.492 0 0 1 1.611 3.146c-.08 1.453-1.073 2.686-2.41 3.126.411.134.854.196 1.315.167a3.517 3.517 0 0 0 3.268-3.293 3.492 3.492 0 0 0-1.611-3.146Z"/></g><path d="M61 41.383v13.35a4.754 4.754 0 0 1-4.753 4.753h-13.35v-7.78c-.425.044-.818.27-1.052.635a3.49 3.49 0 0 1-3.146 1.61 3.517 3.517 0 0 1-3.292-3.268 3.5 3.5 0 0 1 3.493-3.725 3.49 3.49 0 0 1 2.94 1.607c.236.368.628.598 1.057.644v-7.826h7.786a1.443 1.443 0 0 1-.649 1.104 3.487 3.487 0 0 0-1.607 2.94 3.5 3.5 0 0 0 3.725 3.492 3.517 3.517 0 0 0 3.268-3.292 3.492 3.492 0 0 0-1.612-3.146 1.42 1.42 0 0 1-.637-1.098H61Z" fill="#ED5575"/><g fill="#CC3A60"><path d="M47.861 42.487a3.487 3.487 0 0 0-1.607 2.94 3.5 3.5 0 0 0 4.583 3.326 3.5 3.5 0 0 1-2.41-3.327c0-1.234.64-2.317 1.607-2.939.38-.245.614-.658.649-1.104H48.51a1.443 1.443 0 0 1-.649 1.104ZM58.827 41.383v13.35a4.754 4.754 0 0 1-4.753 4.753h2.173A4.754 4.754 0 0 0 61 54.733v-13.35h-2.173Z"/></g><path d="M23.612 40.416a3.517 3.517 0 0 0 3.293 3.268 3.49 3.49 0 0 0 3.146-1.61 1.416 1.416 0 0 1 1.052-.635v7.78h-13.35A4.754 4.754 0 0 1 13 44.466v-13.35h7.82a1.414 1.414 0 0 0-.628-1.006 3.49 3.49 0 0 1-1.612-3.145 3.517 3.517 0 0 1 3.269-3.292 3.5 3.5 0 0 1 3.724 3.491c0 1.236-.64 2.32-1.607 2.94-.352.228-.58.601-.638 1.013h7.775v7.825a1.43 1.43 0 0 1-1.058-.643 3.49 3.49 0 0 0-2.94-1.607 3.5 3.5 0 0 0-3.493 3.724Z" fill="#5C9CEE"/></g></svg>