<svg height="40" width="40" xmlns="http://www.w3.org/2000/svg" viewBox="0 0 512 512" xml:space="preserve"><path style="fill:#b28964" d="M255.999 83.188c-10.345 0-18.732-8.387-18.732-18.732V18.732C237.267 8.387 245.654 0 255.999 0s18.732 8.387 18.732 18.732v45.724c-.001 10.345-8.386 18.732-18.732 18.732z"/><path style="fill:#896746" d="M256.003 0v83.188c10.344-.002 18.728-8.388 18.728-18.732V18.732C274.73 8.388 266.346.002 256.003 0z"/><path style="fill:#fdbf00" d="M413.928 392.938H98.069c-15.186 0-24.042-17.169-15.296-29.542l45.434-64.286V173.516c0-70.465 57.328-127.791 127.793-127.791s127.791 57.327 127.791 127.791V299.11l45.433 64.286c8.763 12.396-.141 29.542-15.296 29.542z"/><path style="fill:#b28964" d="M255.999 512c-29.138 0-52.843-23.706-52.843-52.843 0-29.138 23.706-52.842 52.843-52.842s52.842 23.704 52.842 52.842c0 29.137-23.704 52.843-52.842 52.843z"/><path style="fill:#ff9800" d="m429.225 363.395-45.434-64.286V173.516c0-70.464-57.325-127.789-127.788-127.791v347.213h157.926c15.154 0 24.058-17.146 15.296-29.543z"/><path style="fill:#896746" d="M308.842 459.157c0-29.137-23.703-52.841-52.84-52.842V512c29.137-.003 52.84-23.707 52.84-52.843z"/></svg>