<svg fill="#684DF4" width="40" height="36" viewBox="0 0 50 50" xmlns="http://www.w3.org/2000/svg"><path d="M10.586 11 .38 21.205a1 1 0 0 0-.192.191l-.189.19v.246a1 1 0 0 0 0 .326V28h3v22h6V28h2v15h6V28h16v15h6V28h2v22h6V28h3v-5.832a1 1 0 0 0 0-.326v-.256l-.193-.193a1 1 0 0 0-.184-.186 1 1 0 0 0-.006-.004L39.414 11H10.586zm.828 2h27.172l8 8H3.414l8-8zM2 23h46v3h-1.832a1 1 0 0 0-.326 0h-3.688a1 1 0 0 0-.17-.014 1 1 0 0 0-.144.014h-3.672a1 1 0 0 0-.326 0h-3.688a1 1 0 0 0-.17-.014 1 1 0 0 0-.144.014H16.168a1 1 0 0 0-.326 0h-3.688a1 1 0 0 0-.17-.014 1 1 0 0 0-.144.014H8.168a1 1 0 0 0-.326 0H4.154a1 1 0 0 0-.17-.014A1 1 0 0 0 3.84 26H2v-3zm3 5h2v20H5V28zm8 0h2v13h-2V28zm22 0h2v13h-2V28zm8 0h2v20h-2V28z"/></svg>