<svg xmlns="http://www.w3.org/2000/svg" viewBox="0 0 512 512" xml:space="preserve" width="40" height="40"><circle style="fill:#fad24d" cx="256" cy="256" r="256"/><ellipse style="fill:#edb937" cx="256" cy="421.646" rx="182.284" ry="14.371"/><path style="fill:#666" d="M65.982 67.223h380.037c12.486 0 22.702 10.216 22.702 22.702v234.107H43.282V89.924c0-12.486 10.216-22.702 22.702-22.702h-.002z"/><path style="fill:#fff" d="M58.694 308.617h394.609V89.924c0-3.979-3.309-7.288-7.285-7.288H65.982c-3.977 0-7.285 3.309-7.285 7.288v218.693h-.003zM468.718 324.031v24.827c0 12.488-11.26 22.702-25.024 22.702H68.307c-13.764 0-25.024-10.214-25.024-22.702v-24.827H468.72h-.002z"/><circle style="fill:#b6b6b8" cx="256" cy="346.803" r="7.816"/><path style="fill:#c2c2c4" d="m305.066 407.273 36.095 11.566H170.836l29.123-11.566V371.56h105.105v35.713h.002z"/><path style="fill:#ecf0f1" d="M199.961 407.273h105.106l36.095 11.566v4.98H170.838v-4.98l29.123-11.566z"/><path style="fill:#919191" d="M199.961 371.559h105.106v35.713l-105.106-35.713z"/><path style="fill:#20d0c2" d="M75.849 97.5h40.742v7.016H75.849z"/><path style="fill:#ff5b62" d="M121.303 97.5h72.269v7.016h-72.269z"/><path style="fill:#fad24d" d="M197.055 97.5h61.53v7.016h-61.53zM118.648 126.363h21.616v7.016h-21.616z"/><path style="fill:#ff5b62" d="M142.761 126.363h38.345v7.016h-38.345z"/><path style="fill:#20d0c2" d="M182.953 126.363h32.642v7.016h-32.642zM75.592 138.689h37.976v7.016H75.592z"/><path style="fill:#fad24d" d="M117.95 138.689h67.348v7.016H117.95z"/><path style="fill:#ff5b62" d="M116.133 153.42h37.976v7.016h-37.976z"/><path style="fill:#20d0c2" d="M158.49 153.42h67.348v7.016H158.49z"/><path style="fill:#fad24d" d="M82.359 167.503h37.976v7.016H82.359z"/><path style="fill:#20d0c2" d="M125.355 167.503h27.177v7.016h-27.177z"/><path style="fill:#ff5b62" d="M158.93 167.503h76.311v7.016H158.93z"/><path style="fill:#20d0c2" d="M240.83 167.503h27.177v7.016H240.83zM74.245 182.234h101.622v7.016H74.245z"/><path style="fill:#fad24d" d="M180.298 182.234h27.177v7.016h-27.177z"/><path style="fill:#ff5b62" d="M211.347 182.234h37.976v7.016h-37.976z"/><path style="fill:#fff" d="M120.375 111.093h2.807v8.416h-2.807zM193.193 138.689H196v8.416h-2.807z"/><path style="fill:#20d0c2" d="M75.849 202.994h40.742v7.016H75.849z"/><path style="fill:#ff5b62" d="M121.303 202.994h72.269v7.016h-72.269z"/><path style="fill:#fad24d" d="M197.055 202.994h61.53v7.016h-61.53zM118.648 231.847h21.616v7.016h-21.616z"/><path style="fill:#ff5b62" d="M142.761 231.847h38.345v7.016h-38.345z"/><path style="fill:#20d0c2" d="M182.953 231.847h32.642v7.016h-32.642zM75.592 244.183h37.976v7.016H75.592z"/><path style="fill:#fad24d" d="M117.95 244.183h67.348v7.016H117.95z"/><path style="fill:#fff" d="M120.375 216.577h2.807v8.416h-2.807zM193.193 244.183H196v8.416h-2.807z"/><path style="fill:#dce3db" d="M290.223 97.5h147.352v33.984H290.223zM290.221 136.298h70.178v44.852h-70.178v-44.852zM367.398 136.298h70.178v44.852h-70.178v-44.852zM290.423 187.581h146.953v2.172H290.423v-2.172zm0 20.534h96.534v2.172h-96.534v-2.172zm0-6.846h146.953v2.172H290.423v-2.172zm0-6.843h146.953v2.172H290.423v-2.172zM290.048 215.622h43.793v43.42h-43.793v-43.42zm103.913 0h43.795v43.42h-43.795v-43.42zm-51.956 0h43.793v43.42h-43.793v-43.42zM290.423 265.088h146.953v2.172H290.423v-2.172zm0 20.534h96.534v2.172h-96.534v-2.172zm0-6.845h146.953v2.172H290.423v-2.172zm0-6.843h146.953v2.172H290.423v-2.172z"/></svg>